/* XPM */
static char *fabc9d8bacd5441586e410e63d22212ejM6iSVtuR2tfZm36[] = {
/* columns rows colors chars-per-pixel */
"96 96 13 1 ",
"  c gray91",
". c #E9E9E9",
"X c gray92",
"o c #ECEBEB",
"O c #EDEDEC",
"+ c gray93",
"@ c #EFEFEF",
"# c gray94",
"$ c #F1F1F1",
"% c #F6F6F6",
"& c #F9F9F9",
"* c gray98",
"= c white",
/* pixels */
"#++############################+######+#+#####+@%***&&&&&&&&&&&&&&&&&&&&&&&&&&&&&&&&&&&&&&&&&&&%",
"+    ++ +  ++ +++ + +++ +  ++ +++++  + ++++ +  +*==============================================&",
"+ +  ++++ + +++++o+++ +++++++o+++++o ++ + +++  #&==============================================&",
"# ++++++++++++++++++++++++++++++++@+#++++++  + #&==============================================&",
"#++ +#+++++@+@+@+#+++#+#++++#+++#++##++++++++++#&==============================================&",
"# ++++##@@++@+@#++#+#++++#+#+#+##+#++++####+++ #&==============================================&",
"#+ +##+++@+@@@@@##+#+#+#++##++##+##+#+#+#+#+++ #&==============================================&",
"#++++###@+@++@@@+###+######+###++##++#++#+### ++&==============================================&",
"#+ +@+@++@+++@#@+++#+++++++#+#++#++#+++++#++# +#&==============================================&",
"+ +++@+@@+++@+++#+#+#+#+#+#+++#++##+++#+#++++ ++&==============================================&",
"# oo++@+++++++@++++++++++++++++++# +++++@+++ +++&==============================================&",
"++o++++@+++++++@++++++++++++++++##+++++++@@+++ #&==============================================&",
"# ++++@+++++@+@++#+#+#+++++#+++#++++++++@++++  #&==============================================&",
"# +++++@+++++@+@#+++++#+#+#+#+#+#+#++++++@+++++#&==============================================&",
"# + ++@+@+@+@+##+++++#+#+#+++#+###+#+#+#@+@+ +o#&==============================================&",
"#o+++@+@+@+@++@@#+#+#+#+++#+++#++#++#++++@+o++ #&==============================================&",
"#++++++#+#+#+#+#+#+++#+++#+#+#+++##+#++++##++++#&==============================================&",
"++ +++#+#+++++##++#+#+#+#+++++#+##++++##+++++ +#===============================================&",
"# +++#+++++++#+++#+#+#+#+++++#+##++#+#++#++++  #&==============================================&",
"#+++++#+#+#+#+###+++#+++#+#+#+++##+#++#+#++++++#&==============================================&",
"# +++++#+++#++#++++#+#+#+++#+++#+++#+#+++++++++#&==============================================&",
"#+ +++#+#+#+#+###+#+++++#+#+#+#+##+++#+#+##+ + #&==============================================&",
"#++++#+++#+#+#+#+#+++++#+#+#+#++#+#+++#++++++++#&==============================================&",
"++ +++#+++#+++##++#+#+#+++#+++#+###+#+++##+++ +#&==============================================&",
"# +++++#+#+#+#+++#+++++#+#+#+#+#+#++##++#+++++ #&==============================================&",
"#+++++#+++++#+###+#+#+#+++++#++++##++++#++#++ +#&==============================================&",
"#++ +#+++++#+++#+#+#+#+#+++#++++##+++++#+#+++ +#&==============================================&",
"# ++++#+#+#+#+###+++++#+#+#+#+#+#++###+++#++++++&==============================================&",
"#++++++#+#+++##++++#+#+++#+++#+##++++++##++++++#&==============================================&",
"#  +++#+++#+#+#+#+++++#+++#+#+#+####+#++++#++ +#&==============================================&",
"# +++#+++#+#+###+++#+#+#+#+#+#+++#++#+#++#+++  #&==============================================&",
"#+++++#+#++++++##+#+#+++#+++++#++##+++#++#++++++&==============================================&",
"+o ++#++#+#+#+#+#+#+#+++#+#+#+++##+#+++##+++++o#*==============================================&",
"#+++++#++++#++##+++#+#+#+++#+#+##++#+#+++#+++++#*==============================================&",
"#++++++#++++#+#+#+++++#+#+++++#+++++++++++++o+++*==============================================&",
"#  o++#++++++++++++#+#+++++#+#+++##++++++#+++  @*==============================================&",
"#+ +++++++++++#++++++++++++++++++#++++++#++++  #&==============================================&",
"+ ++++#++++++++#+++++++++++++++++++++++++++++++#&==============================================&",
"#+ ++##+++++++++#+#+#+++#+#+#+++#+#+++#+#++++  #&==============================================&",
"+ +++++#+#+++###+++#+#+#+++#+#++##++++#++#++++ #&==============================================&",
"#+ +#+##+#+#+#+#####++##+###+###++#++#++#+#+++ #&==============================================&",
"# +++##+#+++#+##+######+##+#+#######++#+###++++#&==============================================&",
"# ++++#+++++#+#+++#+#+++#+++++#+##+++#++##+#+  #&==============================================&",
"#++++#+##+++++#++#+++++#+#+++#++++#+#++++++++++#&==============================================&",
"++ ++++++ ++++++++++++++++++++++++++++++++++o +#&==============================================&",
"#  + +++++++++++++++++++++ ++ +o+++++o ++++++  #&==============================================&",
"+    ++ +  o++++o + +  ++++  ++++++    + ++    +&==============================================&",
"#+#######+###+#################+##########@##++#%&&&&&&&&&&&&&&&&&&&&&&&&&&&*&*=&&&&&&&&&&&&&&&%",
"%***&&&&&&&&&&&&&&&&&&&&&&&&&&&&&&&&&&&&&&&&&&&%+++#####+#######+#####+#####@@######+##+#####+##",
"*==============================================&+    ++++  + +++#+ + ++++ ++o++ +++ ++ +++ ++  +",
"&==============================================&+ +  ++++ + ++++o + ++  #  #+ + # o+ ++++ o    #",
"&==============================================&# ++++++++++++++++#+#+#+++++++#++#++++ ++##+ + #",
"&==============================================&#++++++++++@++@++#+++#+#+### ##+++#+++++#+#  + #",
"&==============================================&# ++++#+@@+++@##++#+#+++#+++##++##+##+#++###+++#",
"&==============================================&#++++###+@+@@@@@##+#+#+###++++##+#+#++++#+#+++ #",
"&==============================================&#+ ++#+#@+@++@@@+###+###+######+##+##+#+###++++#",
"&==============================================&#+++@+@++@+++@#@+++#+++++++#+#+##++# +##@+@@o ++",
"&==============================================&+  o+@+@@+++@+++#+#+#+#+#+###+++#+#+++#++@++++ #",
"&==============================================&# o+++@+++++++@+++++++++++++ +++++++++ +@++@++ +",
"&==============================================&@+o++++@+++++++@++++++++++++++++#++++++++@+o+ +#",
"&==============================================&+ ++++@+++++@+@++#+#+#+++++#+#+#+++#++++@++++ +#",
"&==============================================*#+ ++++@+++++@+@#+++++#+#+#+#+++#+#++++++@++++ #",
"&==============================================*#+++++@+@+@+@+##+++++#+#+#++++++#+++++##@+#+++ #",
"&==============================================*# o++@+@+@+@++@@#+#+#+#+++#+#+#+###+#+#++#+++ +#",
"&==============================================&++++++#++#+++##++#++##+++#+++#++#++#+#+++#+++ +#",
"&==============================================&#  +++#++#+#++#+++#++++#+#+#++#+##+++#+#++#++++#",
"&==============================================&#+ ++#++++#+######+++++#++#+##++#+#+++#+##+++  #",
"&==============================================&#++++++##++++++#+++###++#++++++####+#++++++++++#",
"&==============================================&++++++#+++###++##++++++#++###++++#++#++##++++++#",
"&==============================================&#+ +++#+#+++++##++##+#++#+++++##+##+#++#++#++  #",
"&==============================================&#+ ++#++#++++##++#++#+#+#++++#++##+++++++#+++++#",
"&==============================================&# +++++#++##++#+++#+++#+++##++#+#++#+##++++++ +#",
"&==============================================&#+ +++##+++#+#####++++##+++#+#+++##+#+++#+++++ #",
"&==============================================&#++++++++#+++#+#+++##++++#+++#+###++++###++++++#",
"&==============================================&# + +##+#+#+++##+++##+++#+#+++#+#++#+#++++++ + #",
"&==============================================&#+++++++++#+#+++##++++##++#+#+++##+#++#++##++++#",
"&==============================================&#++++++#+#++#+##++#++#+++#++#++#+++#+#+++##++ +#",
"&==============================================&#  ++++#++#+#++#+#++++#+++#+#++###+++#+#+++++++#",
"&===============================================#+ +++++##++++##++####++##++++++#+#+++#+#++++  #",
"&==============================================&#++++##++++#+##+#++++++#+++#+##+###+#+++#++++++#",
"&==============================================&#+ ++#+#++#+++#+#+++++#+#+++++#++++#++##+++++ +#",
"&==============================================&# +o+++++#++++##+#+#+#+++#+#+#++##++#++++##++++#",
"&==============================================&#+o++++#++++#++#++#+#+#+++#+#+#+#+#++++++++++o #",
"&==============================================&@ +++++++++++##++#+++#+#+#+++#+#++#+++++#+++ + #",
"&==============================================&+++++++#+++++++++++++++++++++++++#+++++++++++  #",
"&==============================================&# + ++#+++++++#+++++++++++++++++++++++++++++++ #",
"&==============================================&@  +++#+#++++#++#+#+++#+#+#+++#+#+##++++#+#++ +#",
"&==============================================&+++++#+++#++++##+#+++#+++#+++#++#++++++#+#++++++",
"&==============================================&#++++##++#+++#+#+###++##+###+###+##+#+#+###+++ #",
"&==============================================&# ++++##++#+####+#+####+##+#+#+###+#+++##+##+++#",
"&==============================================&#++++++#+#+#++###+++#+#+++#+#+++#++##+#+##++++o#",
"&==============================================&#+ +++#+#++++#+++#+#+#+++#+#+#+#++#+++++++++++ #",
"&==============================================&#+ +++++++ ++++++++++++++++++++++++++ ++++++o+ #",
"&==============================================&+  +++ +++ +++++++ ++ +++++ +o+o++++++ +++ +   +",
"&==============================================*+   + ++o  + ++++o++ ++ + +  ++++++++    + ++  +",
"%&&&&&&&&&&&&&&&&&&&&&&&&&&&&&&&&&&&&&&&&&&&***%#++####@@##+###+#+#################+##########+#"
};
